<?xml version="1.0" standalone="no"?>
<!DOCTYPE svg PUBLIC "-//W3C//DTD SVG 20010904//EN"
 "http://www.w3.org/TR/2001/REC-SVG-20010904/DTD/svg10.dtd">
<svg version="1.0" xmlns="http://www.w3.org/2000/svg"
 width="512.000000pt" height="512.000000pt" viewBox="0 0 512.000000 512.000000"
 preserveAspectRatio="xMidYMid meet">

<g transform="translate(0.000000,512.000000) scale(0.100000,-0.100000)"
fill="#000000" stroke="none">
<path d="M2245 5095 c-459 -56 -921 -252 -1295 -551 -406 -324 -723 -813 -859
-1324 -188 -707 -63 -1465 342 -2075 409 -617 1089 -1034 1825 -1120 162 -19
442 -19 604 0 470 55 928 248 1308 551 406 324 723 813 859 1324 188 707 63
1465 -342 2075 -409 617 -1089 1034 -1825 1120 -155 18 -465 18 -617 0z m-88
-1727 l403 -403 405 405 405 405 202 -203 203 -202 -405 -405 -405 -405 405
-405 405 -405 -203 -202 -202 -203 -405 405 -405 405 -405 -405 -405 -405
-202 203 -203 202 405 405 405 405 -405 405 -405 405 200 200 c110 110 202
200 205 200 3 0 186 -181 407 -402z"/>
</g>
</svg>
