<?xml version="1.0" encoding="utf-8"?>
<svg width="33" height="33" viewBox="0 0 33 33" fill="none" xmlns="http://www.w3.org/2000/svg">
  <path d="M 30.39 13.809 L 29.249 13.809 L 29.249 13.749 L 16.499 13.749 L 16.499 19.416 L 24.505 19.416 C 23.337 22.714 20.199 25.082 16.499 25.082 C 11.806 25.082 8.001 21.276 8.001 16.582 C 8.001 11.889 11.806 8.084 16.499 8.084 C 18.666 8.084 20.638 8.9 22.138 10.236 L 26.144 6.229 C 23.615 3.871 20.23 2.417 16.499 2.417 C 8.677 2.417 2.334 8.76 2.334 16.582 C 2.334 24.406 8.677 30.748 16.499 30.748 C 24.323 30.748 30.665 24.406 30.665 16.582 C 30.665 15.633 30.567 14.705 30.39 13.809 Z" fill="#FFC107" style=""/>
  <path d="M 3.967 9.989 L 8.621 13.402 C 9.881 10.284 12.93 8.084 16.499 8.084 C 18.666 8.084 20.638 8.9 22.138 10.236 L 26.144 6.229 C 23.615 3.871 20.23 2.417 16.499 2.417 C 11.059 2.417 6.34 5.489 3.967 9.989 Z" fill="#FF3D00" style=""/>
  <path d="M 16.499 30.748 C 20.158 30.748 23.483 29.348 25.997 27.07 L 21.612 23.361 C 20.143 24.479 18.346 25.083 16.499 25.082 C 12.815 25.082 9.687 22.732 8.508 19.454 L 3.889 23.013 C 6.234 27.601 10.994 30.748 16.499 30.748 Z" fill="#4CAF50" style=""/>
  <path d="M 30.39 13.809 L 29.249 13.809 L 29.249 13.749 L 16.499 13.749 L 16.499 19.416 L 24.505 19.416 C 23.947 20.986 22.94 22.357 21.61 23.361 L 21.612 23.361 L 25.997 27.07 C 25.686 27.352 30.665 23.665 30.665 16.582 C 30.665 15.633 30.567 14.705 30.39 13.809 Z" fill="#1976D2" style=""/>
</svg>