<svg width="41" height="41" viewBox="0 0 41 41" fill="none" xmlns="http://www.w3.org/2000/svg">
<path d="M26.2656 8.96875C26.2656 8.45904 26.4681 7.9702 26.8285 7.60978C27.1889 7.24936 27.6778 7.04688 28.1875 7.04688H30.1094V5.125C30.1094 4.61529 30.3118 4.12645 30.6723 3.76603C31.0327 3.40561 31.5215 3.20312 32.0312 3.20312C32.541 3.20312 33.0298 3.40561 33.3902 3.76603C33.7506 4.12645 33.9531 4.61529 33.9531 5.125V7.04688H35.875C36.3847 7.04688 36.8735 7.24936 37.234 7.60978C37.5944 7.9702 37.7969 8.45904 37.7969 8.96875C37.7969 9.47846 37.5944 9.9673 37.234 10.3277C36.8735 10.6881 36.3847 10.8906 35.875 10.8906H33.9531V12.8125C33.9531 13.3222 33.7506 13.8111 33.3902 14.1715C33.0298 14.5319 32.541 14.7344 32.0312 14.7344C31.5215 14.7344 31.0327 14.5319 30.6723 14.1715C30.3118 13.8111 30.1094 13.3222 30.1094 12.8125V10.8906H28.1875C27.6778 10.8906 27.1889 10.6881 26.8285 10.3277C26.4681 9.9673 26.2656 9.47846 26.2656 8.96875ZM37.5887 17.7773C38.0294 20.5986 37.7675 23.4851 36.826 26.181C35.8846 28.8768 34.2927 31.2989 32.1914 33.2324C32.1139 33.3206 32.0281 33.401 31.9351 33.4727C28.7777 36.2594 24.7113 37.7972 20.5 37.7972C16.2887 37.7972 12.2223 36.2594 9.06483 33.4727C8.97189 33.401 8.88608 33.3206 8.80858 33.2324C6.08371 30.714 4.24001 27.3868 3.54925 23.7412C2.8585 20.0956 3.35724 16.3246 4.97196 12.9839C6.58667 9.64324 9.23193 6.90971 12.5178 5.18624C15.8037 3.46278 19.5564 2.84057 23.2226 3.41133C23.7272 3.49398 24.1786 3.77265 24.4785 4.18662C24.7785 4.60059 24.9028 5.11632 24.8242 5.62148C24.7853 5.87014 24.6975 6.10863 24.5659 6.32318C24.4343 6.53772 24.2615 6.72408 24.0575 6.8715C23.8536 7.01891 23.6224 7.12446 23.3774 7.18205C23.1324 7.23964 22.8784 7.24813 22.6301 7.20703C21.9253 7.098 21.2131 7.04445 20.5 7.04688C17.9753 7.04514 15.5011 7.75473 13.3611 9.09433C11.2211 10.4339 9.50176 12.3493 8.40017 14.6211C7.29857 16.8928 6.85928 19.4289 7.13263 21.9388C7.40597 24.4487 8.3809 26.8308 9.94569 28.8121C11.1892 27.2328 12.7708 25.9522 14.5742 25.0645C13.42 23.8956 12.6372 22.4115 12.3243 20.7989C12.0114 19.1863 12.1825 17.5172 12.8159 16.0015C13.4493 14.4859 14.5167 13.1914 15.884 12.2809C17.2513 11.3704 18.8573 10.8846 20.5 10.8846C22.1427 10.8846 23.7487 11.3704 25.116 12.2809C26.4832 13.1914 27.5507 14.4859 28.1841 16.0015C28.8175 17.5172 28.9885 19.1863 28.6757 20.7989C28.3628 22.4115 27.58 23.8956 26.4258 25.0645C28.2292 25.9522 29.8108 27.2328 31.0543 28.8121C32.9321 26.4486 33.9539 23.5187 33.9531 20.5C33.9555 19.7869 33.902 19.0747 33.793 18.3699C33.7519 18.1216 33.7604 17.8676 33.8179 17.6226C33.8755 17.3776 33.9811 17.1464 34.1285 16.9424C34.2759 16.7384 34.4623 16.5657 34.6768 16.4341C34.8914 16.3025 35.1298 16.2147 35.3785 16.1758C35.8837 16.0972 36.3994 16.2215 36.8134 16.5215C37.2273 16.8214 37.506 17.2728 37.5887 17.7773ZM20.5 23.7031C21.3869 23.7031 22.2539 23.4401 22.9914 22.9474C23.7288 22.4546 24.3036 21.7543 24.643 20.9348C24.9824 20.1154 25.0712 19.2138 24.8982 18.3439C24.7252 17.474 24.2981 16.675 23.6709 16.0478C23.0438 15.4207 22.2447 14.9936 21.3748 14.8205C20.505 14.6475 19.6033 14.7363 18.7839 15.0757C17.9645 15.4151 17.2641 15.9899 16.7714 16.7274C16.2786 17.4648 16.0156 18.3318 16.0156 19.2188C16.0198 20.4068 16.4937 21.545 17.3337 22.385C18.1738 23.2251 19.312 23.6989 20.5 23.7031ZM20.5 33.9531C23.2773 33.9558 25.9865 33.0938 28.2516 31.4867C27.3612 30.2657 26.195 29.2722 24.848 28.5873C23.5009 27.9024 22.0112 27.5454 20.5 27.5454C18.9888 27.5454 17.499 27.9024 16.152 28.5873C14.8049 29.2722 13.6388 30.2657 12.7484 31.4867C15.0135 33.0938 17.7227 33.9558 20.5 33.9531Z" fill="#00883C"/>
</svg>
